<svg xmlns="http://www.w3.org/2000/svg" viewBox="0 0 157.6 33.2" width="320" height="68">
  <path d="M89.8 25.2c-.4 1.2-1.1 2.1-1.9 2.9-.8.8-1.8 1.3-2.9 1.7s-2.4.6-3.7.6c-2 0-3.7-.4-5.1-1.1-1.4-.8-2.5-1.7-3.4-2.7l3.6-4c.7.8 1.5 1.4 2.2 1.9.7.5 1.6.7 2.5.7 1.1 0 1.9-.3 2.5-1 .6-.7.9-1.8.9-3.3V4.3h5.8v16.8c.2 1.6 0 3-.5 4.1zM97.6 30.1V4.3h5.7V30h-5.7zM131.3 27.8c-.7.6-1.5 1-2.3 1.5-.8.4-1.8.7-2.8.9-1 .2-2.1.3-3.4.3-1.9 0-3.6-.3-5.3-1s-3-1.6-4.2-2.8c-1.2-1.2-2.1-2.6-2.8-4.2-.7-1.6-1-3.3-1-5.2v-.1c0-1.8.3-3.6 1-5.2s1.6-3 2.8-4.2c1.2-1.2 2.6-2.2 4.2-2.9s3.5-1 5.4-1c1.2 0 2.3.1 3.3.3 1 .2 1.9.5 2.7.8.8.3 1.6.8 2.2 1.2.7.5 1.3 1 1.9 1.6l-3.6 4.2c-1-.9-2-1.6-3.1-2.1-1-.5-2.2-.8-3.5-.8-1.1 0-2.1.2-3 .6-.9.4-1.7 1-2.4 1.7s-1.2 1.6-1.5 2.6c-.4 1-.6 2-.6 3.1v.1c0 1.1.2 2.1.6 3.1.4 1 .9 1.8 1.5 2.6.6.7 1.4 1.3 2.4 1.7.9.4 1.9.6 3 .6 1.5 0 2.7-.3 3.7-.8s2-1.3 3-2.2l3.6 3.6c-.4.8-1.1 1.5-1.8 2zM156.9 25.8c-.5 1-1.1 1.8-1.9 2.5s-1.8 1.2-3 1.5c-1.1.4-2.4.5-3.8.5-2 0-3.9-.3-5.8-1s-3.6-1.7-5.1-3.1l3.3-4c1.2 1 2.4 1.7 3.6 2.3 1.2.6 2.6.8 4.1.8 1.2 0 2.1-.2 2.7-.6.6-.4 1-1 1-1.8v-.1c0-.4-.1-.7-.2-1-.1-.3-.4-.5-.8-.8-.4-.2-.9-.5-1.6-.7-.7-.2-1.6-.5-2.6-.8-1.3-.3-2.5-.7-3.5-1.1-1.1-.4-2-.9-2.7-1.5-.7-.6-1.3-1.3-1.7-2.1s-.6-1.9-.6-3.2v-.1c0-1.2.2-2.2.7-3.2.4-.9 1.1-1.8 1.8-2.4.8-.7 1.7-1.2 2.8-1.6 1.1-.4 2.3-.6 3.6-.6 1.2 0 2.3.1 3.3.3 1 .2 1.9.5 2.7.8.8.3 1.6.8 2.2 1.2.7.5 1.3 1 1.9 1.6l-3.6 4.2c-1-.9-2-1.6-3.1-2.1s-2.2-.7-3.3-.7c-1.1 0-1.9.2-2.5.6-.6.4-.8 1-.8 1.6v.1c0 .4.1.8.2 1.1.2.3.4.6.9.8.4.2 1 .5 1.7.7.7.2 1.6.5 2.7.8.7.2 1.6.5 2.7.8 1.3.3 2.5.7 3.5 1.2 1 .4 1.9.9 2.6 1.5.7.6 1.2 1.3 1.6 2.1s.5 1.8.5 2.9v.1c0 1.6-.3 2.8-.7 3.7z" fill="#111" />
  <path d="M0 33.2V0h33.2c0 18.3-14.9 33.2-33.2 33.2M62.4 0v33.2H29.1C29.1 14.9 44 0 62.4 0" fill="#005ae0" />
</svg>
